<?xml version="1.0" encoding="UTF-8" standalone="no"?>
<!DOCTYPE svg PUBLIC "-//W3C//DTD SVG 1.1//EN" "http://www.w3.org/Graphics/SVG/1.1/DTD/svg11.dtd">
<svg width="100%" height="100%" viewBox="0 0 1080 1080" version="1.1" xmlns="http://www.w3.org/2000/svg" xmlns:xlink="http://www.w3.org/1999/xlink" xml:space="preserve" xmlns:serif="http://www.serif.com/" style="fill-rule:evenodd;clip-rule:evenodd;stroke-linejoin:round;stroke-miterlimit:2;">
    <g id="logo" transform="matrix(1.08658,0,0,1.08658,-47.2581,-7.55846)">
        <g transform="matrix(0.920318,0,0,0.920318,43.4925,6.95619)">
            <rect x="0" y="0" width="1080" height="1080" style="fill:none;"/>
        </g>
        <g transform="matrix(6.48715e-17,1.05943,-1.05943,6.48715e-17,868.728,-141.869)">
            <path d="M280.358,146.232C294.871,137.853 312.753,137.853 327.267,146.232C356.032,162.84 404.504,190.825 433.27,207.433C447.783,215.812 456.724,231.298 456.724,248.058L456.724,370.459C456.724,387.218 447.783,402.704 433.27,411.084C404.504,427.691 356.032,455.676 327.267,472.284C312.753,480.664 294.871,480.664 280.358,472.284C251.592,455.676 203.12,427.691 174.355,411.084C159.841,402.704 150.9,387.218 150.9,370.459L150.9,248.058C150.9,231.298 159.841,215.812 174.355,207.433C203.12,190.825 251.592,162.84 280.358,146.232Z" style="fill:rgb(251,190,153);"/>
        </g>
        <g transform="matrix(6.48715e-17,1.05943,-1.05943,6.48715e-17,868.728,218.131)">
            <path d="M280.358,146.232C294.871,137.853 312.753,137.853 327.267,146.232C356.032,162.84 404.504,190.825 433.27,207.433C447.783,215.812 456.724,231.298 456.724,248.058L456.724,370.459C456.724,387.218 447.783,402.704 433.27,411.084C404.504,427.691 356.032,455.676 327.267,472.284C312.753,480.664 294.871,480.664 280.358,472.284C251.592,455.676 203.12,427.691 174.355,411.084C159.841,402.704 150.9,387.218 150.9,370.459L150.9,248.058C150.9,231.298 159.841,215.812 174.355,207.433C203.12,190.825 251.592,162.84 280.358,146.232Z" style="fill:rgb(244,128,55);"/>
        </g>
        <g transform="matrix(6.48715e-17,1.05943,-1.05943,6.48715e-17,1178.01,398.131)">
            <path d="M280.358,146.232C294.871,137.853 312.753,137.853 327.267,146.232C356.032,162.84 404.504,190.825 433.27,207.433C447.783,215.812 456.724,231.298 456.724,248.058L456.724,370.459C456.724,387.218 447.783,402.704 433.27,411.084C404.504,427.691 356.032,455.676 327.267,472.284C312.753,480.664 294.871,480.664 280.358,472.284C251.592,455.676 203.12,427.691 174.355,411.084C159.841,402.704 150.9,387.218 150.9,370.459L150.9,248.058C150.9,231.298 159.841,215.812 174.355,207.433C203.12,190.825 251.592,162.84 280.358,146.232Z" style="fill:rgb(238,169,74);"/>
        </g>
        <g transform="matrix(6.48715e-17,1.05943,-1.05943,6.48715e-17,558.192,398.131)">
            <path d="M280.358,146.232C294.871,137.853 312.753,137.853 327.267,146.232C356.032,162.84 404.504,190.825 433.27,207.433C447.783,215.812 456.724,231.298 456.724,248.058L456.724,370.459C456.724,387.218 447.783,402.704 433.27,411.084C404.504,427.691 356.032,455.676 327.267,472.284C312.753,480.664 294.871,480.664 280.358,472.284C251.592,455.676 203.12,427.691 174.355,411.084C159.841,402.704 150.9,387.218 150.9,370.459L150.9,248.058C150.9,231.298 159.841,215.812 174.355,207.433C203.12,190.825 251.592,162.84 280.358,146.232Z" style="fill:rgb(242,114,69);"/>
        </g>
    </g>
</svg>
